# xmcd
#
# Track frame offsets:
#	150
#	16604
#	32055
#	52945
#	67883
#	82140
#	104286
#	115664
#	133026
#	148765
#	166376
#	179420
#	194245
#	207946
#	219362
#	241089
#
# Disc length: 3519 seconds
#
# Revision: 1
# Processed by: cddbd v1.5.1PL0 Copyright (c) Steve Scherf et al.
# Submitted via: audiograbber 1.83.01
#
DISCID=df0dbd10
DTITLE=Ajda Pekkan - The Best Of Süperstar Ajda
DYEAR=1900
DGENRE=
TTITLE0=Sana Dogru
TTITLE1=Sarkilar
TTITLE2=Ah Fatma
TTITLE3=Bir Gece Sahnede
TTITLE4=Petrol
TTITLE5=Bambaska Biri
TTITLE6=Sakin Sakin Ha
TTITLE7=Yeniden Baslasin
TTITLE8=Daha Neler
TTITLE9=Baksana Talihe
TTITLE10=Sana Ne Kime Ne
TTITLE11=Anlamadim Gitti
TTITLE12=Gözün Aydin
TTITLE13=Al Beni
TTITLE14=Sen Mutlu Ol
TTITLE15=Bir Tek Sey
EXTD=
EXTT0=
EXTT1=
EXTT2=
EXTT3=
EXTT4=
EXTT5=
EXTT6=
EXTT7=
EXTT8=
EXTT9=
EXTT10=
EXTT11=
EXTT12=
EXTT13=
EXTT14=
EXTT15=
PLAYORDER=
